<?xml version="1.0" encoding="UTF-8"?>
<svg id="Layer_1" xmlns="http://www.w3.org/2000/svg" version="1.1" viewBox="0 0 1805 744">
  <!-- Generator: Adobe Illustrator 30.7.0, SVG Export Plug-In . SVG Version: 2.1.4 Build 114)  -->
  <defs>
    <style>
      .st0 {
        fill: #fff;
      }
    </style>
  </defs>
  <g>
    <g>
      <path class="st0" d="M1509.4,337.1c-.6-12.2-2.2-23.6-5.8-34.6l-5.5-16.5c-3.8-11.5-7.8-22.5-14.3-32.9l-16.6-26.4-20.5-23.5c-24.3-23.2-55.2-41.5-87.4-51.5-30.5-9.4-61.5-11.7-93.5-8.3s-68,16.9-97.6,35.8c-9.4,6-19.7,3.3-26.9-4.8s-9.3-18.6-3.9-26.7c5.7-8.7,15.4-13,24.3-17.8,24.7-13.3,50.4-22.2,78-28.1,40.7-8.6,81.8-7.3,122.3,3.2,21.7,5.6,41.6,14.1,61.2,24.9,27.2,14.9,57.3,39.2,75.8,64.2l13.2,17.9,12.3,21.7c7.4,13.2,11.5,27.1,16,41.4s7.3,21.9,8.8,33.8l7.1,57.5,1.2,65.7c.3,13.7-9.3,23.6-22.4,23.8-12.8.3-23.1-9.6-23.2-23.1l-.2-44.7-2.6-50.9Z"/>
      <path class="st0" d="M1772.7,494.7c3.1,6.7,2.3,13.2-1.2,19.3-2.9,5-8.4,9.4-15.6,9.4l-128.5.2c-11.8,0-22-7.8-21.9-20.8l.5-74-.2-241.7c2.9-9.6,10.4-14.4,20.3-15.5l131.8.2c10.5,0,17.1,10.7,16.9,19.9-.1,6.5-1.8,11.1-5.8,14.8s-9.7,5.1-16.1,5.2l-87.7.4-17.3.6v270.2c-.1,0,108.6.4,108.6.4,7.5,0,13.6,3.9,16.1,11.2Z"/>
    </g>
    <g>
      <path class="st0" d="M1445.4,542.7c-2.9-5.9-6.5-11.3-11.4-16.1l-16.9,14.7c-29,23-63.2,37.1-100.2,41.6-20.3,2.4-40.1,3.2-60.2.3-31-4.5-67.2-14.1-93.8-30l-20.6-12.3c-8.8-6.8-10.1-16.8-6.2-26.6s11.9-15.6,23.1-14.2,10.1,3.1,14.8,6c30.6,19.1,64.9,30,100.8,33.3,9.2.8,16.8,1.3,25.8.5,30-2.5,59-11.1,83.3-29.8l24.5-22.6c8.4-7.8,19-13.8,30.7-14.1,23.4-.5,44,29.1,52.5,49.2l12.4,29.1c4.1-4.5,3.7-10.3,4.3-15.6l3.5-32.3c1.1-9.7,7.7-18.5,17.6-20s24.3,5.6,27.1,17.6c1.7,7.5.1,14.8-.8,22.4-3.4,27.6-5.8,54.9-12.1,81.8-2.8,11.7-6.9,21.8-13,32-5.7,9.6-16.2,16.8-27.8,14.3-7.4-1.6-14.1-8.9-16.6-15.7l-8.1-22.2-10.5-26.5-22.1-44.8Z"/>
      <circle class="st0" cx="1165.9" cy="347.9" r="35.4"/>
      <circle class="st0" cx="1414.5" cy="347.6" r="35.2"/>
      <circle class="st0" cx="1290.3" cy="347.7" r="35.2"/>
    </g>
    <circle class="st0" cx="1709.3" cy="347.7" r="35"/>
  </g>
  <g>
    <g>
      <path class="st0" d="M475.9,479.2c9.1,0,16.8,4.6,18.7,13.5,3.5,11.4-3.1,25.3-15.7,26.8l-44,.6-86,.3c-10.8,0-23.2-7.8-23.2-20V186.7c1.5-9.6,8.5-16.4,17.7-19.1h132.8c6.5.1,10.9,2.9,14.9,7s5.1,10.4,3.8,16.5c-.6,11-9.2,17-20,17.1l-105.7.4-.2,270.7h107Z"/>
      <path class="st0" d="M158.8,502.3c0,7.6-3.5,13.7-7.7,17.3-5.1,4.4-11.7,5.4-18.3,4.4-10-1.6-16.8-9.4-16.8-20.2V210c0,0-68,0-68,0-10.9,0-19-7.1-19.2-18.5-1.7-10.3,5.8-22.6,17.8-22.6h177.2c6.5,0,11.5.7,16,4.6,4.2,3.7,5.9,9.3,6.2,15.5.6,12.1-7.9,20.9-20.2,21l-67.2.4.2,12v280.1Z"/>
      <circle class="st0" cx="429.7" cy="343.8" r="35.3"/>
    </g>
    <g>
      <path class="st0" d="M1080.1,488.3c8,7.7,9.4,18.8,2.8,27.8s-24.5,11.5-34.7,1.6l-34.6-33.4-49-48-66.7-65.2-17.3-16.4c-1.8,8.3-.5,15.3-.5,23.3l-.2,124.8c0,13.5-10.6,22.9-23.7,21.5s-19.3-9-19.2-20.2v-86.2c0,0,0-38.2,0-38.2v-83.8s-.2-112.1-.2-112.1c2.5-8.3,7.7-14.3,14.5-16.6,8.5-3.2,17.2-1.1,23.2,5.1,6.1,6.3,6.2,14.2,6.2,22.7l-.3,97.9c0,8.2-1.5,16,1.3,24.1l37.2-34.2,53.5-48.5,68.9-62.8c8.5-7.7,21-6.9,28.2.7,7.7,8.1,8,20.9-.7,28.8l-95.7,87.1-51.8,47.3,21.8,20.9,54.5,52.4,35.4,34.6,19,18.1,28.3,27.2Z"/>
      <g>
        <path class="st0" d="M636.7,179.6c-1.1.2-.8,1.6.5,1.7.4,1.5,0,2.6,0,3.9l.5,30.1v13.8s0,172.6,0,172.6l.3,15.4c-.5,0-.9.8-.9,1.8v25.1c0,1.1.4,1.8,1.5,2.4l-.4,33.9h86.1c5,0,9.6-.4,14.2.8,9.4,2.5,15,10.2,14.7,19.8s-8.8,20.3-17.9,20.3h-120.8c-12.5,0-20-11.9-19.8-23.1l.5-32.4.3-280.7c0-9.8,10.4-17.6,18.4-18.7,11-1.5,20.5,3.5,23.2,13.2Z"/>
        <path class="st0" d="M637.6,215.3l-.5-30.1c1.2-.4,1.9.3,1.9,1.7v26.1c0,1.2-.4,1.9-1.5,2.3Z"/>
        <path class="st0" d="M638.4,446.5c-1.1-.6-1.5-1.3-1.5-2.4v-25.1c0-1,.4-1.7.9-1.8.7.4,1.2,1.1,1.2,1.8l-.6,27.5Z"/>
        <path class="st0" d="M637.2,181.3c-1.3,0-1.6-1.4-.5-1.7l.5,1.7Z"/>
      </g>
    </g>
  </g>
</svg>