<svg xmlns="http://www.w3.org/2000/svg" viewBox="0 0 1440 960" role="img" aria-labelledby="title desc">
  <title id="title">Telkie front desk inbox interface</title>
  <desc id="desc">A Telkie front desk dashboard mockup showing WeChat guest messages, translation, and contact details.</desc>
  <rect width="1440" height="960" fill="#eef4f8"/>
  <rect x="24" y="24" width="1392" height="868" rx="24" fill="#fff"/>
  <rect x="24" y="24" width="1392" height="868" rx="24" fill="none" stroke="#d8e1ec"/>
  <rect x="104" y="24" width="1" height="868" fill="#d8e1ec"/>
  <rect x="436" y="104" width="1" height="789" fill="#d8e1ec"/>
  <rect x="1084" y="104" width="1" height="789" fill="#d8e1ec"/>
  <rect x="24" y="104" width="1392" height="1" fill="#d8e1ec"/>
  <circle cx="64" cy="68" r="20" fill="#d61d56"/>
  <text x="64" y="64" text-anchor="middle" font-family="Arial, sans-serif" font-size="12" font-weight="700" fill="#fff">ABC</text>
  <text x="64" y="76" text-anchor="middle" font-family="Arial, sans-serif" font-size="6" fill="#fff">Hotels</text>
  <rect x="120" y="49" width="138" height="55" rx="14" fill="#fff" stroke="#d8e1ec"/>
  <text x="136" y="84" font-family="Arial, sans-serif" font-size="21" font-weight="700" fill="#2563eb">Front Desk</text>
  <rect x="120" y="120" width="252" height="40" rx="10" fill="#fff" stroke="#d8e1ec"/>
  <text x="164" y="145" font-family="Arial, sans-serif" font-size="16" fill="#93a4bd">Search messages...</text>
  <text x="132" y="193" font-family="Arial, sans-serif" font-size="14" font-weight="700" fill="#111827">Unread / Not yet replied</text>
  <rect x="132" y="216" width="108" height="32" rx="8" fill="#fff" stroke="#d8e1ec"/>
  <text x="160" y="236" font-family="Arial, sans-serif" font-size="13" font-weight="700" fill="#2563eb">Open(6)</text>
  <rect x="240" y="216" width="108" height="32" rx="8" fill="#f8fafc" stroke="#d8e1ec"/>
  <text x="250" y="236" font-family="Arial, sans-serif" font-size="13" fill="#64748b">Completed(20)</text>
  <text x="120" y="271" font-family="Arial, sans-serif" font-size="13" font-weight="700" fill="#94a3b8">Assigned to me</text>
  <rect x="120" y="286" width="300" height="61" rx="10" fill="#edf5ff"/>
  <text x="188" y="310" font-family="Arial, sans-serif" font-size="15" font-weight="700" fill="#111827">oGZUIO...4M</text>
  <text x="188" y="334" font-family="Arial, sans-serif" font-size="15" fill="#64748b">Can I borrow a travel adapter?</text>
  <text x="356" y="309" font-family="Arial, sans-serif" font-size="12" fill="#94a3b8">03:26 PM</text>
  <text x="188" y="372" font-family="Arial, sans-serif" font-size="15" font-weight="700" fill="#111827">oGZUB1...5O</text>
  <rect x="188" y="381" width="78" height="18" rx="9" fill="#fff34d"/>
  <text x="196" y="394" font-family="Arial, sans-serif" font-size="10" fill="#111827">Awaiting Reply</text>
  <text x="188" y="417" font-family="Arial, sans-serif" font-size="15" fill="#64748b">I would like to book a car. Ca···</text>
  <text x="188" y="459" font-family="Arial, sans-serif" font-size="15" font-weight="700" fill="#111827">oGZUA1...6I</text>
  <text x="188" y="483" font-family="Arial, sans-serif" font-size="15" fill="#64748b">May I have your room number?</text>
  <text x="504" y="146" font-family="Arial, sans-serif" font-size="16" font-weight="700" fill="#111827">oGZUIO...4M</text>
  <text x="812" y="146" font-family="Arial, sans-serif" font-size="14" font-weight="700" fill="#64748b">47:59:30</text>
  <rect x="897" y="124" width="171" height="33" rx="8" fill="#fff" stroke="#2563eb" stroke-width="2"/>
  <text x="934" y="145" font-family="Arial, sans-serif" font-size="15" font-weight="700" fill="#2563eb">Mark as complete</text>
  <text x="524" y="224" font-family="Arial, sans-serif" font-size="15" font-weight="700" fill="#111827">oGZUIO...4M</text>
  <rect x="524" y="234" width="250" height="113" rx="14" fill="#edf1f7"/>
  <text x="536" y="260" font-family="Arial, sans-serif" font-size="15" fill="#111827">请问可借转换插头吗?</text>
  <text x="536" y="286" font-family="Arial, sans-serif" font-size="13" fill="#64748b">Chinese (Simplified)</text>
  <text x="536" y="310" font-family="Arial, sans-serif" font-size="15" fill="#64748b">Can I borrow a travel adapter?</text>
  <text x="536" y="334" font-family="Arial, sans-serif" font-size="12" fill="#64748b">03:26 PM</text>
  <text x="536" y="372" font-family="Arial, sans-serif" font-size="12" fill="#94a3b8">Translated by</text>
  <text x="623" y="372" font-family="Arial, sans-serif" font-size="15" fill="#4285f4">Google</text>
  <text x="460" y="772" font-family="Arial, sans-serif" font-size="15" fill="#94a3b8">Please write your message here</text>
  <rect x="460" y="836" width="170" height="34" rx="10" fill="#f1f5f9"/>
  <text x="497" y="858" font-family="Arial, sans-serif" font-size="14" font-weight="700" fill="#64748b">Simplified Chinese</text>
  <rect x="807" y="836" width="112" height="34" rx="10" fill="#f8fafc"/>
  <text x="845" y="858" font-family="Arial, sans-serif" font-size="14" font-weight="700" fill="#64748b">Template</text>
  <circle cx="1042" cy="853" r="18" fill="#2563eb"/>
  <text x="1100" y="148" font-family="Arial, sans-serif" font-size="18" font-weight="700" fill="#111827">oGZUIO...4M</text>
  <text x="1100" y="200" font-family="Arial, sans-serif" font-size="13" font-weight="700" fill="#94a3b8">Contact details</text>
  <line x1="1100" y1="207" x2="1400" y2="207" stroke="#e2e8f0"/>
  <text x="1100" y="239" font-family="Arial, sans-serif" font-size="13" font-weight="700" fill="#64748b">Nickname</text>
  <text x="1262" y="239" font-family="Arial, sans-serif" font-size="13" font-weight="700" fill="#64748b">Room No.</text>
  <line x1="1100" y1="281" x2="1238" y2="281" stroke="#e2e8f0"/>
  <line x1="1262" y1="281" x2="1400" y2="281" stroke="#e2e8f0"/>
  <text x="1100" y="310" font-family="Arial, sans-serif" font-size="13" font-weight="700" fill="#64748b">Preferred Language</text>
  <rect x="1100" y="332" width="195" height="26" rx="13" fill="#fff" stroke="#cbd5e1"/>
  <text x="1109" y="350" font-family="Arial, sans-serif" font-size="16" font-weight="700" fill="#2563eb">Chinese (Simplified)</text>
  <text x="1100" y="393" font-family="Arial, sans-serif" font-size="13" font-weight="700" fill="#64748b">Notes (tag: Booking)</text>
  <line x1="1100" y1="436" x2="1400" y2="436" stroke="#e2e8f0"/>
  <text x="1100" y="464" font-family="Arial, sans-serif" font-size="13" font-weight="700" fill="#64748b">Notes (tag: Loan Service)</text>
  <line x1="1100" y1="507" x2="1400" y2="507" stroke="#e2e8f0"/>
  <text x="1100" y="535" font-family="Arial, sans-serif" font-size="13" font-weight="700" fill="#64748b">Notes (tag: Others)</text>
  <line x1="1100" y1="578" x2="1400" y2="578" stroke="#e2e8f0"/>
  <rect x="1200" y="677" width="100" height="33" rx="8" fill="#2563eb"/>
  <text x="1222" y="699" font-family="Arial, sans-serif" font-size="15" font-weight="700" fill="#fff">View all</text>
  <text x="595" y="925" font-family="Arial, sans-serif" font-size="15" fill="#64748b">This service is powered by Telkie.com</text>
</svg>
